<?xml version="1.0" encoding="UTF-8"?>
<svg xmlns="http://www.w3.org/2000/svg" xmlns:xlink="http://www.w3.org/1999/xlink" width="50px" height="50px" viewBox="0 0 50 50" version="1.1">
<defs>
<clipPath id="clip1">
  <path d="M 4.167969 8.265625 L 46 8.265625 L 46 43.628906 L 4.167969 43.628906 Z M 4.167969 8.265625 "/>
</clipPath>
</defs>
<g id="surface1">
<g clip-path="url(#clip1)" clip-rule="nonzero">
<path style=" stroke:none;fill-rule:nonzero;fill:rgb(94.509804%,55.294118%,15.686275%);fill-opacity:1;" d="M 39.867188 14.390625 C 39.507812 14.027344 39.132812 13.679688 38.742188 13.34375 C 38.355469 13.007812 37.957031 12.6875 37.542969 12.382812 C 37.132812 12.078125 36.710938 11.785156 36.277344 11.511719 C 35.84375 11.238281 35.402344 10.980469 34.949219 10.738281 C 34.496094 10.496094 34.039062 10.269531 33.570312 10.0625 C 33.101562 9.855469 32.625 9.664062 32.144531 9.492188 C 31.660156 9.320312 31.171875 9.164062 30.679688 9.027344 C 30.183594 8.890625 29.6875 8.773438 29.183594 8.671875 C 28.679688 8.570312 28.175781 8.488281 27.667969 8.425781 C 27.15625 8.363281 26.648438 8.320312 26.136719 8.296875 C 25.625 8.269531 25.113281 8.261719 24.597656 8.277344 C 24.085938 8.289062 23.574219 8.320312 23.066406 8.371094 C 22.554688 8.421875 22.050781 8.488281 21.542969 8.578125 C 21.039062 8.664062 20.539062 8.773438 20.042969 8.894531 C 19.542969 9.019531 19.050781 9.164062 18.566406 9.324219 C 18.078125 9.484375 17.597656 9.664062 17.125 9.859375 C 16.652344 10.058594 16.1875 10.269531 15.730469 10.5 C 15.269531 10.730469 14.824219 10.980469 14.382812 11.242188 C 13.941406 11.507812 13.515625 11.785156 13.09375 12.082031 C 12.675781 12.378906 12.269531 12.6875 11.871094 13.011719 C 11.476562 13.339844 11.09375 13.679688 10.722656 14.03125 C 10.351562 14.386719 9.992188 14.753906 9.648438 15.132812 C 9.304688 15.515625 8.976562 15.90625 8.660156 16.3125 C 8.34375 16.714844 8.042969 17.132812 7.761719 17.558594 C 7.476562 17.984375 7.207031 18.421875 6.953125 18.867188 C 6.703125 19.3125 6.464844 19.769531 6.246094 20.234375 C 6.027344 20.699219 5.824219 21.167969 5.640625 21.648438 C 5.457031 22.125 5.289062 22.609375 5.140625 23.101562 C 4.992188 23.59375 4.863281 24.089844 4.75 24.589844 C 4.636719 25.089844 4.542969 25.59375 4.46875 26.101562 C 4.394531 26.609375 4.335938 27.121094 4.300781 27.632812 C 4.261719 28.144531 4.242188 28.65625 4.242188 29.167969 L 4.242188 36.972656 C 4.242188 37.046875 4.246094 37.121094 4.253906 37.199219 C 4.261719 37.273438 4.273438 37.347656 4.289062 37.421875 C 4.300781 37.496094 4.320312 37.570312 4.34375 37.640625 C 4.363281 37.714844 4.390625 37.785156 4.417969 37.855469 C 4.449219 37.925781 4.480469 37.992188 4.515625 38.058594 C 4.550781 38.128906 4.589844 38.191406 4.632812 38.253906 C 4.675781 38.316406 4.71875 38.378906 4.769531 38.4375 C 4.816406 38.496094 4.867188 38.550781 4.917969 38.605469 C 4.972656 38.660156 5.027344 38.707031 5.085938 38.757812 C 5.144531 38.804688 5.207031 38.851562 5.269531 38.890625 C 5.332031 38.933594 5.398438 38.972656 5.464844 39.007812 C 5.53125 39.042969 5.597656 39.078125 5.667969 39.105469 C 5.738281 39.136719 5.808594 39.160156 5.882812 39.183594 C 5.953125 39.203125 6.027344 39.222656 6.101562 39.238281 C 6.175781 39.253906 6.25 39.265625 6.324219 39.269531 C 6.402344 39.277344 6.476562 39.28125 6.550781 39.28125 L 7.238281 39.28125 C 7.996094 41.808594 11.003906 43.628906 13.632812 43.628906 L 15.726562 43.628906 C 15.847656 43.628906 15.964844 43.617188 16.085938 43.59375 C 16.203125 43.570312 16.320312 43.535156 16.429688 43.488281 C 16.542969 43.441406 16.648438 43.382812 16.75 43.316406 C 16.847656 43.25 16.941406 43.171875 17.027344 43.085938 C 17.113281 43.003906 17.191406 42.910156 17.257812 42.808594 C 17.324219 42.707031 17.382812 42.601562 17.425781 42.488281 C 17.472656 42.378906 17.507812 42.261719 17.53125 42.144531 C 17.554688 42.023438 17.566406 41.90625 17.566406 41.785156 L 17.566406 27.550781 C 17.566406 27.429688 17.554688 27.3125 17.53125 27.191406 C 17.507812 27.074219 17.472656 26.957031 17.425781 26.847656 C 17.382812 26.734375 17.324219 26.628906 17.257812 26.527344 C 17.191406 26.425781 17.113281 26.332031 17.027344 26.25 C 16.941406 26.164062 16.847656 26.085938 16.75 26.019531 C 16.648438 25.953125 16.542969 25.894531 16.429688 25.847656 C 16.320312 25.800781 16.203125 25.765625 16.085938 25.742188 C 15.964844 25.71875 15.847656 25.707031 15.726562 25.707031 L 13.636719 25.707031 C 11.875 25.707031 9.949219 26.519531 8.640625 27.816406 C 9.039062 19.792969 16.277344 13.382812 25.113281 13.382812 C 33.949219 13.382812 41.183594 19.796875 41.582031 27.816406 C 40.273438 26.523438 38.347656 25.707031 36.585938 25.707031 L 34.496094 25.707031 C 34.375 25.707031 34.257812 25.71875 34.136719 25.742188 C 34.019531 25.765625 33.90625 25.800781 33.792969 25.847656 C 33.679688 25.894531 33.574219 25.953125 33.472656 26.019531 C 33.375 26.085938 33.28125 26.164062 33.195312 26.25 C 33.109375 26.332031 33.035156 26.425781 32.964844 26.527344 C 32.898438 26.628906 32.84375 26.734375 32.796875 26.847656 C 32.75 26.957031 32.714844 27.074219 32.691406 27.191406 C 32.667969 27.3125 32.65625 27.429688 32.65625 27.550781 L 32.65625 41.785156 C 32.65625 41.90625 32.667969 42.023438 32.691406 42.144531 C 32.714844 42.261719 32.75 42.378906 32.796875 42.488281 C 32.84375 42.601562 32.898438 42.707031 32.964844 42.808594 C 33.035156 42.910156 33.109375 43.003906 33.195312 43.085938 C 33.28125 43.171875 33.375 43.25 33.472656 43.316406 C 33.574219 43.382812 33.679688 43.441406 33.792969 43.488281 C 33.90625 43.535156 34.019531 43.570312 34.136719 43.59375 C 34.257812 43.617188 34.375 43.628906 34.496094 43.628906 L 36.585938 43.628906 C 39.222656 43.628906 42.226562 41.804688 42.980469 39.28125 L 43.667969 39.28125 C 43.746094 39.28125 43.820312 39.277344 43.894531 39.269531 C 43.96875 39.265625 44.042969 39.253906 44.121094 39.238281 C 44.191406 39.222656 44.265625 39.203125 44.339844 39.183594 C 44.410156 39.160156 44.480469 39.136719 44.550781 39.105469 C 44.621094 39.078125 44.691406 39.042969 44.757812 39.007812 C 44.824219 38.972656 44.886719 38.933594 44.949219 38.890625 C 45.011719 38.851562 45.074219 38.804688 45.132812 38.757812 C 45.191406 38.707031 45.246094 38.660156 45.300781 38.605469 C 45.355469 38.550781 45.40625 38.496094 45.453125 38.4375 C 45.5 38.378906 45.546875 38.316406 45.585938 38.253906 C 45.628906 38.191406 45.667969 38.128906 45.703125 38.058594 C 45.738281 37.992188 45.773438 37.925781 45.800781 37.855469 C 45.828125 37.785156 45.855469 37.714844 45.878906 37.640625 C 45.898438 37.570312 45.917969 37.496094 45.933594 37.421875 C 45.949219 37.347656 45.957031 37.273438 45.964844 37.199219 C 45.972656 37.121094 45.976562 37.046875 45.976562 36.972656 L 45.976562 29.167969 C 45.980469 28.484375 45.949219 27.800781 45.882812 27.121094 C 45.816406 26.4375 45.71875 25.761719 45.585938 25.089844 C 45.453125 24.417969 45.289062 23.753906 45.089844 23.097656 C 44.890625 22.445312 44.664062 21.800781 44.402344 21.167969 C 44.140625 20.535156 43.847656 19.917969 43.523438 19.3125 C 43.203125 18.710938 42.851562 18.121094 42.46875 17.554688 C 42.089844 16.984375 41.683594 16.4375 41.246094 15.910156 C 40.8125 15.378906 40.351562 14.875 39.867188 14.390625 Z M 5.808594 36.972656 L 5.808594 32.363281 C 5.808594 32.316406 5.8125 32.269531 5.824219 32.21875 C 5.832031 32.171875 5.847656 32.125 5.867188 32.082031 C 5.882812 32.035156 5.90625 31.992188 5.933594 31.953125 C 5.960938 31.910156 5.992188 31.875 6.027344 31.839844 C 6.0625 31.804688 6.097656 31.773438 6.140625 31.746094 C 6.179688 31.71875 6.222656 31.695312 6.269531 31.679688 C 6.3125 31.660156 6.359375 31.644531 6.40625 31.636719 C 6.457031 31.625 6.503906 31.621094 6.550781 31.621094 L 7.058594 31.621094 L 7.058594 37.714844 L 6.550781 37.714844 C 6.503906 37.714844 6.457031 37.710938 6.40625 37.699219 C 6.359375 37.691406 6.3125 37.675781 6.269531 37.65625 C 6.222656 37.636719 6.179688 37.617188 6.140625 37.589844 C 6.097656 37.5625 6.0625 37.53125 6.027344 37.496094 C 5.992188 37.460938 5.960938 37.425781 5.933594 37.382812 C 5.90625 37.34375 5.886719 37.300781 5.867188 37.253906 C 5.847656 37.210938 5.832031 37.164062 5.824219 37.117188 C 5.8125 37.066406 5.808594 37.019531 5.808594 36.972656 Z M 16.003906 27.550781 L 16.003906 41.785156 C 16.003906 41.820312 15.996094 41.855469 15.980469 41.890625 C 15.96875 41.925781 15.949219 41.953125 15.921875 41.980469 C 15.894531 42.003906 15.867188 42.027344 15.832031 42.039062 C 15.796875 42.054688 15.761719 42.0625 15.726562 42.0625 L 14.417969 42.0625 L 14.417969 27.277344 L 15.726562 27.277344 C 15.761719 27.277344 15.796875 27.28125 15.832031 27.296875 C 15.867188 27.308594 15.894531 27.332031 15.921875 27.355469 C 15.949219 27.382812 15.96875 27.414062 15.980469 27.445312 C 15.996094 27.480469 16.003906 27.515625 16.003906 27.550781 Z M 12.851562 27.34375 L 12.851562 41.992188 C 10.785156 41.636719 8.617188 39.96875 8.617188 38.058594 L 8.617188 31.277344 C 8.621094 29.367188 10.789062 27.699219 12.855469 27.34375 Z M 37.855469 16.683594 C 34.449219 13.542969 29.921875 11.8125 25.113281 11.8125 C 20.300781 11.8125 15.773438 13.539062 12.367188 16.683594 C 8.945312 19.839844 7.054688 24.042969 7.054688 28.515625 L 7.054688 30.054688 L 6.550781 30.054688 C 6.292969 30.054688 6.046875 30.09375 5.804688 30.179688 L 5.804688 29.167969 C 5.804688 18.511719 14.464844 9.839844 25.109375 9.839844 C 35.753906 9.839844 44.410156 18.511719 44.410156 29.167969 L 44.410156 30.179688 C 44.171875 30.09375 43.921875 30.054688 43.667969 30.054688 L 43.164062 30.054688 L 43.164062 28.515625 C 43.167969 24.042969 41.28125 19.839844 37.855469 16.683594 Z M 34.222656 41.785156 L 34.222656 27.550781 C 34.222656 27.515625 34.226562 27.480469 34.242188 27.445312 C 34.257812 27.414062 34.277344 27.382812 34.300781 27.355469 C 34.328125 27.332031 34.359375 27.308594 34.390625 27.296875 C 34.425781 27.28125 34.460938 27.277344 34.496094 27.277344 L 35.804688 27.277344 L 35.804688 42.0625 L 34.496094 42.0625 C 34.460938 42.0625 34.425781 42.054688 34.390625 42.039062 C 34.359375 42.027344 34.328125 42.003906 34.300781 41.980469 C 34.277344 41.953125 34.257812 41.925781 34.242188 41.890625 C 34.226562 41.855469 34.222656 41.820312 34.222656 41.785156 Z M 37.375 41.992188 L 37.375 27.34375 C 39.4375 27.699219 41.605469 29.367188 41.605469 31.277344 L 41.605469 38.058594 C 41.601562 39.96875 39.433594 41.636719 37.371094 41.992188 Z M 44.417969 36.96875 C 44.417969 37.019531 44.414062 37.066406 44.402344 37.113281 C 44.394531 37.164062 44.378906 37.210938 44.363281 37.253906 C 44.34375 37.300781 44.320312 37.34375 44.292969 37.382812 C 44.265625 37.425781 44.234375 37.460938 44.199219 37.496094 C 44.164062 37.53125 44.128906 37.5625 44.085938 37.589844 C 44.046875 37.617188 44.003906 37.636719 43.960938 37.65625 C 43.914062 37.675781 43.867188 37.691406 43.820312 37.699219 C 43.773438 37.710938 43.722656 37.714844 43.675781 37.714844 L 43.171875 37.714844 L 43.171875 31.621094 L 43.675781 31.621094 C 43.722656 31.621094 43.773438 31.628906 43.820312 31.636719 C 43.867188 31.644531 43.914062 31.660156 43.960938 31.679688 C 44.003906 31.699219 44.046875 31.71875 44.085938 31.746094 C 44.128906 31.773438 44.164062 31.804688 44.199219 31.839844 C 44.234375 31.875 44.265625 31.914062 44.292969 31.953125 C 44.320312 31.992188 44.34375 32.035156 44.363281 32.082031 C 44.378906 32.125 44.394531 32.171875 44.402344 32.222656 C 44.414062 32.269531 44.417969 32.316406 44.417969 32.367188 L 44.417969 36.972656 Z M 44.417969 36.96875 "/>
</g>
</g>
</svg>
