<?xml version="1.0" encoding="UTF-8"?>
<svg xmlns="http://www.w3.org/2000/svg" xmlns:xlink="http://www.w3.org/1999/xlink" width="50px" height="50px" viewBox="0 0 50 50" version="1.1">
<defs>
<clipPath id="clip1">
  <path d="M 6.535156 3.363281 L 42.875 3.363281 L 42.875 45.5625 L 6.535156 45.5625 Z M 6.535156 3.363281 "/>
</clipPath>
</defs>
<g id="surface1">
<g clip-path="url(#clip1)" clip-rule="nonzero">
<path style=" stroke:none;fill-rule:nonzero;fill:rgb(91.372549%,63.921569%,13.333333%);fill-opacity:1;" d="M 42.800781 30.824219 L 36.964844 5.886719 C 36.945312 5.796875 36.886719 5.71875 36.808594 5.671875 C 36.726562 5.625 36.632812 5.617188 36.542969 5.640625 L 35.984375 5.808594 L 35.332031 3.636719 C 35.28125 3.460938 35.097656 3.359375 34.921875 3.410156 L 20.296875 7.53125 C 19.382812 7.792969 18.675781 8.527344 18.445312 9.449219 L 18.386719 9.699219 C 18.15625 9.335938 17.8125 9.050781 17.386719 8.902344 L 10.257812 6.417969 C 10.105469 6.363281 9.9375 6.425781 9.859375 6.5625 L 8.757812 8.429688 L 7.019531 8.003906 C 6.898438 7.976562 6.773438 8.011719 6.691406 8.101562 C 6.609375 8.191406 6.582031 8.316406 6.617188 8.433594 L 9.257812 16.597656 C 8.5 16.492188 7.722656 16.789062 7.222656 17.425781 L 7.082031 17.597656 C 6.332031 18.550781 6.464844 19.910156 7.382812 20.695312 L 8.425781 21.585938 L 8.226562 22.234375 C 7.910156 23.261719 8.28125 24.382812 9.121094 25.035156 L 9.226562 27.300781 C 9.269531 28.175781 9.785156 28.9375 10.566406 29.308594 L 10.515625 29.929688 C 10.421875 31.136719 11.214844 32.210938 12.394531 32.484375 L 12.617188 32.535156 C 13.765625 34.445312 14.644531 37.027344 15.351562 39.113281 C 15.703125 40.148438 16.003906 41.039062 16.289062 41.703125 C 17.214844 43.871094 19.160156 45.425781 19.242188 45.492188 C 19.300781 45.539062 19.375 45.5625 19.449219 45.5625 L 37.628906 45.5625 C 37.738281 45.5625 37.835938 45.511719 37.902344 45.425781 C 37.964844 45.339844 37.984375 45.230469 37.949219 45.128906 L 36.054688 39.019531 C 35.765625 38.089844 35.75 37.101562 36.007812 36.164062 L 36.746094 33.503906 L 42.597656 31.214844 C 42.75 31.152344 42.839844 30.988281 42.800781 30.824219 Z M 19.097656 9.609375 C 19.269531 8.917969 19.796875 8.371094 20.480469 8.175781 L 34.785156 4.144531 L 35.339844 5.996094 L 20.167969 10.46875 L 20.210938 10.332031 C 20.347656 9.929688 20.671875 9.617188 21.074219 9.496094 L 32.382812 6.148438 C 32.558594 6.09375 32.660156 5.90625 32.605469 5.730469 C 32.554688 5.554688 32.367188 5.453125 32.191406 5.503906 L 20.886719 8.855469 C 20.269531 9.035156 19.78125 9.507812 19.574219 10.121094 L 19.386719 10.691406 C 19.195312 10.738281 19.003906 10.761719 18.8125 10.769531 Z M 10.296875 7.140625 L 17.167969 9.535156 C 17.632812 9.699219 17.957031 10.109375 18.011719 10.59375 L 11.089844 7.914062 C 10.917969 7.847656 10.722656 7.933594 10.65625 8.105469 C 10.589844 8.277344 10.675781 8.46875 10.847656 8.535156 L 13.730469 9.652344 L 9.4375 8.597656 Z M 7.441406 8.796875 L 16.011719 10.902344 L 17.230469 15 C 17.132812 15.015625 17.039062 15.035156 16.945312 15.070312 C 16.347656 15.292969 15.941406 15.871094 15.941406 16.507812 C 15.941406 16.632812 15.957031 16.753906 15.984375 16.863281 L 16.113281 17.390625 C 15.898438 17.359375 15.679688 17.390625 15.480469 17.492188 C 14.773438 17.855469 14.332031 18.578125 14.332031 19.371094 C 14.332031 19.527344 14.351562 19.6875 14.386719 19.832031 L 14.648438 21.011719 L 14.550781 21.0625 C 14.457031 21.113281 14.367188 21.167969 14.285156 21.226562 C 14.175781 20.835938 13.964844 20.476562 13.664062 20.195312 L 10.488281 17.179688 C 10.355469 17.054688 10.207031 16.953125 10.050781 16.867188 Z M 7.820312 20.1875 C 7.1875 19.644531 7.09375 18.667969 7.609375 18.011719 L 7.75 17.839844 C 8.203125 17.261719 8.976562 17.078125 9.628906 17.394531 C 9.773438 17.460938 9.90625 17.550781 10.023438 17.664062 L 13.203125 20.679688 C 13.523438 20.980469 13.691406 21.402344 13.6875 21.839844 C 13.484375 22.144531 13.355469 22.484375 13.3125 22.84375 C 12.980469 23.238281 12.464844 23.441406 11.953125 23.382812 C 11.648438 23.347656 11.371094 23.226562 11.136719 23.023438 Z M 15.6875 32.601562 L 15.085938 32.433594 L 12.375 24.050781 C 12.726562 24.011719 13.0625 23.886719 13.355469 23.691406 C 13.777344 25.910156 14.59375 29.757812 15.6875 32.601562 Z M 9.730469 24.652344 L 9.644531 24.597656 C 9.640625 24.59375 9.640625 24.589844 9.636719 24.589844 C 8.933594 24.121094 8.621094 23.234375 8.867188 22.429688 L 8.980469 22.058594 L 10.699219 23.53125 C 10.972656 23.769531 11.304688 23.929688 11.65625 24.007812 L 12.382812 26.253906 Z M 9.894531 27.269531 L 9.8125 25.480469 L 12.699219 27.222656 L 13.476562 29.628906 L 11.027344 28.78125 C 10.375 28.554688 9.929688 27.960938 9.894531 27.269531 Z M 12.910156 31.917969 L 12.546875 31.832031 C 11.691406 31.636719 11.117188 30.855469 11.1875 29.980469 L 11.21875 29.554688 L 13.734375 30.425781 L 14.320312 32.246094 Z M 19.570312 44.894531 C 19.191406 44.570312 17.65625 43.199219 16.90625 41.441406 C 16.632812 40.800781 16.332031 39.917969 15.988281 38.898438 C 15.335938 36.972656 14.539062 34.632812 13.507812 32.742188 L 14.734375 33.027344 L 16.011719 33.386719 C 16.273438 33.988281 16.542969 34.511719 16.8125 34.925781 C 17.769531 36.414062 19.132812 37.75 20.574219 39.164062 C 22.351562 40.90625 24.1875 42.703125 25.339844 44.894531 Z M 36.144531 33.164062 L 35.363281 35.988281 C 35.070312 37.050781 35.089844 38.167969 35.417969 39.214844 L 37.175781 44.894531 L 26.089844 44.894531 C 24.902344 42.46875 22.941406 40.546875 21.042969 38.6875 C 19.628906 37.300781 18.292969 35.988281 17.375 34.566406 C 17.097656 34.136719 16.820312 33.585938 16.542969 32.933594 C 15.332031 30.054688 14.421875 25.738281 13.988281 23.421875 C 13.964844 23.285156 13.953125 23.144531 13.964844 23.011719 C 13.984375 22.691406 14.101562 22.386719 14.296875 22.128906 C 14.425781 21.953125 14.601562 21.800781 14.800781 21.6875 L 15.5 24.804688 C 15.667969 25.539062 15.953125 26.226562 16.339844 26.847656 L 18.597656 30.5 C 18.660156 30.605469 18.773438 30.660156 18.882812 30.660156 C 18.945312 30.660156 19.003906 30.644531 19.058594 30.609375 C 19.21875 30.511719 19.265625 30.308594 19.167969 30.148438 L 16.910156 26.496094 C 16.558594 25.933594 16.308594 25.316406 16.15625 24.65625 L 15.359375 21.121094 L 15.039062 19.683594 C 15.015625 19.582031 15.003906 19.480469 15.003906 19.371094 C 15.003906 18.828125 15.304688 18.335938 15.789062 18.085938 C 15.894531 18.03125 16.015625 18.03125 16.125 18.082031 C 16.234375 18.128906 16.308594 18.222656 16.339844 18.339844 L 17.558594 23.449219 C 17.78125 24.371094 18.164062 25.234375 18.699219 26.015625 L 20.964844 29.328125 C 21.03125 29.421875 21.136719 29.472656 21.242188 29.472656 C 21.308594 29.472656 21.375 29.453125 21.429688 29.414062 C 21.585938 29.308594 21.625 29.101562 21.519531 28.949219 L 19.253906 25.640625 C 18.761719 24.925781 18.414062 24.136719 18.210938 23.292969 L 16.988281 18.183594 L 16.636719 16.703125 C 16.621094 16.640625 16.613281 16.574219 16.613281 16.507812 C 16.613281 16.148438 16.839844 15.824219 17.175781 15.699219 C 17.320312 15.644531 17.476562 15.632812 17.621094 15.65625 C 17.964844 15.714844 18.238281 15.96875 18.320312 16.304688 L 19.859375 22.675781 C 20.050781 23.484375 20.414062 24.230469 20.9375 24.894531 L 23.988281 28.738281 C 24.105469 28.886719 24.316406 28.910156 24.460938 28.792969 C 24.605469 28.679688 24.628906 28.46875 24.515625 28.324219 L 21.464844 24.480469 C 21 23.894531 20.679688 23.234375 20.511719 22.519531 L 18.933594 15.992188 C 18.90625 15.882812 18.894531 15.769531 18.894531 15.660156 C 18.894531 15.015625 19.335938 14.453125 19.964844 14.292969 C 20.253906 14.21875 20.554688 14.238281 20.835938 14.347656 C 21.261719 14.519531 21.582031 14.882812 21.691406 15.324219 L 23.261719 21.65625 C 23.558594 22.835938 24.210938 23.867188 25.152344 24.636719 L 29.277344 28.015625 C 30 28.605469 31.054688 28.570312 31.734375 27.925781 C 32.296875 27.402344 32.621094 26.664062 32.621094 25.894531 L 32.621094 21.988281 C 32.621094 21.609375 32.769531 21.253906 33.035156 20.988281 C 33.304688 20.722656 33.660156 20.574219 34.039062 20.574219 C 34.566406 20.574219 35.042969 20.863281 35.289062 21.328125 C 35.378906 21.488281 35.429688 21.664062 35.449219 21.851562 L 36.339844 30.871094 C 36.417969 31.644531 36.351562 32.414062 36.144531 33.164062 Z M 36.933594 32.710938 C 37.046875 32.082031 37.074219 31.445312 37.007812 30.804688 L 36.117188 21.785156 C 36.097656 21.578125 36.046875 21.378906 35.96875 21.191406 C 36.621094 20.152344 36.96875 18.957031 36.96875 17.707031 C 36.96875 14.203125 34.226562 11.355469 30.855469 11.355469 C 27.488281 11.355469 24.746094 14.207031 24.746094 17.707031 C 24.746094 21.214844 27.488281 24.0625 30.855469 24.0625 C 31.226562 24.0625 31.589844 24.027344 31.949219 23.960938 L 31.949219 25.894531 C 31.949219 26.476562 31.703125 27.039062 31.269531 27.445312 C 30.839844 27.851562 30.164062 27.875 29.699219 27.496094 L 25.574219 24.121094 C 24.75 23.441406 24.175781 22.535156 23.914062 21.492188 L 22.339844 15.164062 C 22.195312 14.566406 21.785156 14.070312 21.238281 13.796875 L 20.410156 11.09375 L 35.851562 6.542969 L 36.394531 6.386719 L 42.082031 30.695312 Z M 36.933594 32.710938 "/>
</g>
</g>
</svg>
