<?xml version="1.0" encoding="UTF-8"?>
<svg xmlns="http://www.w3.org/2000/svg" xmlns:xlink="http://www.w3.org/1999/xlink" width="50px" height="50px" viewBox="0 0 50 50" version="1.1">
<defs>
<clipPath id="clip1">
  <path d="M 7.332031 7.332031 L 42.800781 7.332031 L 42.800781 45.800781 L 7.332031 45.800781 Z M 7.332031 7.332031 "/>
</clipPath>
<clipPath id="clip2">
  <path d="M 3.976562 17.199219 L 6.667969 17.199219 L 6.667969 23.464844 L 3.976562 23.464844 Z M 3.976562 17.199219 "/>
</clipPath>
</defs>
<g id="surface1">
<g clip-path="url(#clip1)" clip-rule="nonzero">
<path style=" stroke:none;fill-rule:evenodd;fill:rgb(94.509804%,55.294118%,15.686275%);fill-opacity:1;" d="M 18.457031 45.804688 L 18.457031 27.902344 C 17.421875 29.089844 16.453125 30.082031 15.53125 30.898438 C 14.605469 31.703125 13.898438 32.375 12.945312 32.757812 C 11.957031 33.144531 10.582031 33.507812 9.753906 33.160156 C 8.925781 32.78125 8.398438 32.074219 8.03125 30.5625 C 7.671875 29.027344 7.601562 26.023438 7.566406 24.105469 C 7.507812 22.175781 7.136719 20.132812 7.761719 19.183594 C 8.394531 18.238281 10.59375 18.0625 11.285156 18.515625 C 11.953125 18.976562 11.691406 20.480469 11.816406 21.914062 C 11.933594 23.347656 12 25.023438 12.015625 27.035156 C 12.742188 26.285156 13.5 25.546875 14.339844 24.773438 C 15.175781 23.996094 15.902344 22.914062 16.996094 22.445312 C 18.074219 21.980469 19.433594 21.828125 20.78125 21.980469 C 22.125 22.128906 23.574219 23.28125 24.964844 23.308594 C 26.339844 23.304688 27.730469 22.429688 28.953125 22.046875 C 30.140625 21.664062 30.867188 22.546875 32.136719 21.046875 C 33.410156 19.519531 35.300781 15.199219 36.519531 12.996094 C 37.707031 10.777344 38.300781 8.667969 39.308594 7.871094 C 40.308594 7.089844 42.0625 7.535156 42.496094 8.269531 C 42.90625 8.988281 43.03125 9.613281 41.832031 12.199219 C 40.613281 14.796875 36.964844 21.121094 35.324219 23.710938 C 33.679688 26.261719 32.617188 27.519531 32.070312 27.503906 L 32.070312 45.804688 C 27.535156 45.804688 22.996094 45.804688 18.457031 45.804688 Z M 18.457031 45.804688 "/>
</g>
<path style=" stroke:none;fill-rule:evenodd;fill:rgb(94.509804%,55.294118%,15.686275%);fill-opacity:1;" d="M 25.761719 9.855469 C 28.691406 9.855469 31.070312 12.242188 31.070312 15.183594 C 31.070312 18.121094 28.691406 20.507812 25.761719 20.507812 C 22.832031 20.507812 20.453125 18.121094 20.453125 15.183594 C 20.453125 12.242188 22.832031 9.855469 25.761719 9.855469 "/>
<path style=" stroke:none;fill-rule:evenodd;fill:rgb(94.509804%,55.294118%,15.686275%);fill-opacity:1;" d="M 4.707031 19.917969 L 13.40625 19.917969 L 13.40625 20.847656 L 4.707031 20.847656 Z M 4.707031 19.917969 "/>
<path style=" stroke:none;fill-rule:evenodd;fill:rgb(94.509804%,55.294118%,15.686275%);fill-opacity:1;" d="M 13.765625 17.253906 C 13.167969 17.253906 12.675781 17.738281 12.675781 18.339844 L 12.675781 22.289062 C 12.675781 22.886719 13.167969 23.378906 13.765625 23.378906 L 14.25 23.378906 C 14.847656 23.378906 15.335938 22.886719 15.335938 22.289062 L 15.335938 18.339844 C 15.335938 17.738281 14.847656 17.253906 14.25 17.253906 Z M 13.765625 17.253906 "/>
<g clip-path="url(#clip2)" clip-rule="nonzero">
<path style=" stroke:none;fill-rule:evenodd;fill:rgb(94.509804%,55.294118%,15.686275%);fill-opacity:1;" d="M 5.066406 17.253906 C 4.464844 17.253906 3.976562 17.738281 3.976562 18.339844 L 3.976562 22.289062 C 3.976562 22.886719 4.464844 23.378906 5.066406 23.378906 L 5.550781 23.378906 C 6.148438 23.378906 6.632812 22.886719 6.632812 22.289062 L 6.632812 18.339844 C 6.632812 17.738281 6.148438 17.253906 5.550781 17.253906 Z M 5.066406 17.253906 "/>
</g>
<path style=" stroke:none;fill-rule:evenodd;fill:rgb(94.509804%,55.294118%,15.686275%);fill-opacity:1;" d="M 36.152344 7.539062 L 35.78125 8.394531 L 43.773438 11.84375 L 44.140625 10.988281 Z M 36.152344 7.539062 "/>
<path style=" stroke:none;fill-rule:evenodd;fill:rgb(94.509804%,55.294118%,15.686275%);fill-opacity:1;" d="M 45.515625 8.683594 C 44.964844 8.449219 44.328125 8.699219 44.089844 9.25 C 43.574219 10.460938 43.054688 11.667969 42.535156 12.878906 C 42.296875 13.429688 42.550781 14.070312 43.101562 14.308594 C 43.246094 14.371094 43.398438 14.4375 43.546875 14.496094 C 44.097656 14.734375 44.738281 14.480469 44.96875 13.929688 C 45.492188 12.722656 46.011719 11.511719 46.53125 10.308594 C 46.769531 9.753906 46.511719 9.113281 45.960938 8.875 C 45.816406 8.808594 45.667969 8.746094 45.515625 8.683594 Z M 45.515625 8.683594 "/>
<path style=" stroke:none;fill-rule:evenodd;fill:rgb(94.509804%,55.294118%,15.686275%);fill-opacity:1;" d="M 37.527344 5.238281 C 36.976562 5 36.335938 5.25 36.097656 5.800781 C 35.582031 7.011719 35.0625 8.21875 34.542969 9.429688 C 34.304688 9.980469 34.5625 10.621094 35.113281 10.859375 C 35.257812 10.921875 35.40625 10.988281 35.558594 11.050781 C 36.109375 11.285156 36.746094 11.03125 36.980469 10.484375 C 37.5 9.273438 38.019531 8.0625 38.539062 6.859375 C 38.777344 6.304688 38.523438 5.664062 37.972656 5.425781 C 37.828125 5.363281 37.675781 5.300781 37.527344 5.238281 Z M 37.527344 5.238281 "/>
</g>
</svg>
