<?xml version="1.0" encoding="UTF-8"?>
<svg xmlns="http://www.w3.org/2000/svg" xmlns:xlink="http://www.w3.org/1999/xlink" width="100px" height="100px" viewBox="0 0 100 100" version="1.1">
<defs>
<clipPath id="clip1">
  <path d="M 10.398438 25.066406 L 88.691406 25.066406 L 88.691406 83.199219 L 10.398438 83.199219 Z M 10.398438 25.066406 "/>
</clipPath>
<clipPath id="clip2">
  <path d="M 20.535156 81.601562 L 32.265625 81.601562 L 32.265625 89 L 20.535156 89 Z M 20.535156 81.601562 "/>
</clipPath>
<clipPath id="clip3">
  <path d="M 66.667969 81.601562 L 78.398438 81.601562 L 78.398438 89 L 66.667969 89 Z M 66.667969 81.601562 "/>
</clipPath>
<clipPath id="clip4">
  <path d="M 38.667969 10 L 50.132812 10 L 50.132812 20.265625 L 38.667969 20.265625 Z M 38.667969 10 "/>
</clipPath>
<clipPath id="clip5">
  <path d="M 48.800781 10 L 60.265625 10 L 60.265625 20.265625 L 48.800781 20.265625 Z M 48.800781 10 "/>
</clipPath>
</defs>
<g id="surface1">
<g clip-path="url(#clip1)" clip-rule="nonzero">
<path style=" stroke:none;fill-rule:evenodd;fill:rgb(94.509804%,55.294118%,15.686275%);fill-opacity:1;" d="M 21.40625 81.859375 L 77.574219 81.859375 C 77.910156 81.859375 78.183594 82.128906 78.183594 82.464844 L 78.183594 83.070312 L 84.097656 83.070312 C 86.554688 83.070312 88.554688 81.070312 88.554688 78.613281 L 88.554688 29.652344 C 88.554688 27.195312 86.554688 25.195312 84.097656 25.195312 L 56.398438 25.195312 C 56.414062 25.394531 56.425781 25.597656 56.425781 25.800781 C 56.425781 26.136719 56.152344 26.410156 55.816406 26.410156 L 43.175781 26.410156 C 43.167969 26.410156 43.167969 26.410156 43.164062 26.410156 C 43.160156 26.410156 43.15625 26.410156 43.152344 26.410156 C 42.820312 26.402344 42.554688 26.132812 42.554688 25.800781 C 42.554688 25.597656 42.566406 25.394531 42.582031 25.195312 L 14.882812 25.195312 C 12.425781 25.195312 10.425781 27.195312 10.425781 29.652344 L 10.425781 78.613281 C 10.425781 81.070312 12.425781 83.070312 14.882812 83.070312 L 20.796875 83.070312 L 20.796875 82.464844 C 20.796875 82.128906 21.070312 81.859375 21.40625 81.859375 Z M 64.621094 76.03125 L 25.582031 76.03125 C 20.070312 76.03125 15.589844 71.550781 15.589844 66.039062 L 15.589844 42.226562 C 15.589844 36.714844 20.070312 32.234375 25.582031 32.234375 L 64.621094 32.234375 C 70.128906 32.234375 74.609375 36.714844 74.609375 42.226562 L 74.609375 66.039062 C 74.609375 71.550781 70.128906 76.035156 64.621094 76.03125 Z M 80.949219 62.609375 C 78.84375 62.609375 77.132812 60.894531 77.132812 58.789062 C 77.132812 56.683594 78.84375 54.96875 80.949219 54.96875 C 83.058594 54.96875 84.773438 56.683594 84.773438 58.789062 C 84.773438 60.894531 83.058594 62.609375 80.949219 62.609375 Z M 84.855469 76.03125 L 77.046875 76.03125 C 76.710938 76.03125 76.4375 75.761719 76.4375 75.425781 C 76.4375 75.089844 76.710938 74.820312 77.046875 74.820312 L 84.855469 74.820312 C 85.191406 74.820312 85.464844 75.089844 85.464844 75.425781 C 85.464844 75.761719 85.191406 76.035156 84.855469 76.03125 Z M 84.855469 72.804688 L 77.046875 72.804688 C 76.710938 72.804688 76.4375 72.53125 76.4375 72.195312 C 76.4375 71.863281 76.710938 71.589844 77.046875 71.589844 L 84.855469 71.589844 C 85.191406 71.589844 85.464844 71.863281 85.464844 72.195312 C 85.464844 72.53125 85.191406 72.804688 84.855469 72.804688 Z M 84.855469 69.574219 L 77.046875 69.574219 C 76.710938 69.574219 76.4375 69.300781 76.4375 68.964844 C 76.4375 68.632812 76.710938 68.359375 77.046875 68.359375 L 84.855469 68.359375 C 85.191406 68.359375 85.464844 68.632812 85.464844 68.964844 C 85.464844 69.300781 85.191406 69.574219 84.855469 69.574219 Z M 80.949219 53.296875 C 78.84375 53.296875 77.132812 51.585938 77.132812 49.476562 C 77.132812 47.371094 78.84375 45.65625 80.949219 45.65625 C 83.058594 45.65625 84.773438 47.371094 84.773438 49.476562 C 84.773438 51.585938 83.058594 53.296875 80.949219 53.296875 Z M 80.949219 41.859375 C 78.300781 41.859375 76.140625 39.699219 76.140625 37.046875 C 76.140625 34.390625 78.300781 32.234375 80.949219 32.234375 C 80.617188 32.234375 80.34375 32.503906 80.34375 32.839844 L 80.34375 41.253906 C 80.34375 41.589844 80.617188 41.859375 80.949219 41.859375 Z M 81.558594 40.59375 L 81.558594 32.839844 C 81.558594 32.503906 81.285156 32.234375 80.949219 32.234375 C 83.601562 32.234375 85.761719 34.390625 85.761719 37.046875 C 85.761719 39.699219 83.601562 41.859375 80.949219 41.859375 C 81.285156 41.859375 81.558594 41.589844 81.558594 41.253906 Z M 81.558594 40.59375 "/>
<path style=" stroke:none;fill-rule:evenodd;fill:rgb(0%,0%,0%);fill-opacity:1;" d="M 14.882812 26.410156 C 13.09375 26.410156 11.636719 27.863281 11.636719 29.652344 L 11.636719 78.613281 C 11.636719 80.402344 13.09375 81.859375 14.882812 81.859375 L 84.097656 81.859375 C 85.886719 81.859375 87.339844 80.402344 87.339844 78.613281 L 87.339844 29.652344 C 87.339844 27.863281 85.886719 26.410156 84.097656 26.410156 Z M 84.097656 83.070312 L 14.882812 83.070312 C 12.425781 83.070312 10.425781 81.070312 10.425781 78.613281 L 10.425781 29.652344 C 10.425781 27.195312 12.425781 25.195312 14.882812 25.195312 L 84.097656 25.195312 C 86.554688 25.195312 88.554688 27.195312 88.554688 29.652344 L 88.554688 78.613281 C 88.554688 81.070312 86.554688 83.070312 84.097656 83.070312 Z M 84.097656 83.070312 "/>
</g>
<path style=" stroke:none;fill-rule:evenodd;fill:rgb(0%,0%,0%);fill-opacity:1;" d="M 25.582031 33.449219 C 20.738281 33.449219 16.804688 37.386719 16.804688 42.226562 L 16.804688 66.039062 C 16.804688 70.882812 20.738281 74.820312 25.582031 74.820312 L 64.621094 74.820312 C 69.460938 74.820312 73.394531 70.882812 73.394531 66.039062 L 73.394531 42.226562 C 73.394531 37.386719 69.460938 33.449219 64.621094 33.449219 Z M 64.621094 76.03125 L 25.582031 76.03125 C 20.070312 76.03125 15.589844 71.550781 15.589844 66.039062 L 15.589844 42.226562 C 15.589844 36.714844 20.070312 32.234375 25.582031 32.234375 L 64.621094 32.234375 C 70.128906 32.234375 74.609375 36.714844 74.609375 42.226562 L 74.609375 66.039062 C 74.609375 71.550781 70.128906 76.03125 64.621094 76.03125 Z M 64.621094 76.03125 "/>
<path style=" stroke:none;fill-rule:evenodd;fill:rgb(0%,0%,0%);fill-opacity:1;" d="M 84.855469 69.574219 L 77.046875 69.574219 C 76.710938 69.574219 76.4375 69.300781 76.4375 68.964844 C 76.4375 68.632812 76.710938 68.359375 77.046875 68.359375 L 84.855469 68.359375 C 85.191406 68.359375 85.464844 68.632812 85.464844 68.964844 C 85.464844 69.300781 85.191406 69.574219 84.855469 69.574219 Z M 84.855469 69.574219 "/>
<path style=" stroke:none;fill-rule:evenodd;fill:rgb(0%,0%,0%);fill-opacity:1;" d="M 84.855469 72.804688 L 77.046875 72.804688 C 76.710938 72.804688 76.4375 72.53125 76.4375 72.195312 C 76.4375 71.863281 76.710938 71.589844 77.046875 71.589844 L 84.855469 71.589844 C 85.191406 71.589844 85.464844 71.863281 85.464844 72.195312 C 85.464844 72.53125 85.191406 72.804688 84.855469 72.804688 Z M 84.855469 72.804688 "/>
<path style=" stroke:none;fill-rule:evenodd;fill:rgb(0%,0%,0%);fill-opacity:1;" d="M 84.855469 76.03125 L 77.046875 76.03125 C 76.710938 76.03125 76.4375 75.761719 76.4375 75.425781 C 76.4375 75.089844 76.710938 74.820312 77.046875 74.820312 L 84.855469 74.820312 C 85.191406 74.820312 85.464844 75.089844 85.464844 75.425781 C 85.464844 75.761719 85.191406 76.03125 84.855469 76.03125 Z M 84.855469 76.03125 "/>
<path style=" stroke:none;fill-rule:evenodd;fill:rgb(0%,0%,0%);fill-opacity:1;" d="M 80.949219 33.449219 C 78.96875 33.449219 77.355469 35.0625 77.355469 37.046875 C 77.355469 39.03125 78.96875 40.644531 80.949219 40.644531 C 82.933594 40.644531 84.550781 39.03125 84.550781 37.046875 C 84.550781 35.0625 82.933594 33.449219 80.949219 33.449219 Z M 80.949219 41.859375 C 78.300781 41.859375 76.140625 39.699219 76.140625 37.046875 C 76.140625 34.390625 78.300781 32.234375 80.949219 32.234375 C 83.605469 32.234375 85.761719 34.390625 85.761719 37.046875 C 85.761719 39.699219 83.605469 41.859375 80.949219 41.859375 Z M 80.949219 41.859375 "/>
<path style=" stroke:none;fill-rule:evenodd;fill:rgb(0%,0%,0%);fill-opacity:1;" d="M 80.949219 41.859375 C 80.617188 41.859375 80.34375 41.585938 80.34375 41.253906 L 80.34375 32.839844 C 80.34375 32.503906 80.617188 32.234375 80.949219 32.234375 C 81.285156 32.234375 81.558594 32.503906 81.558594 32.839844 L 81.558594 41.253906 C 81.558594 41.585938 81.285156 41.859375 80.949219 41.859375 Z M 80.949219 41.859375 "/>
<g clip-path="url(#clip2)" clip-rule="nonzero">
<path style=" stroke:none;fill-rule:evenodd;fill:rgb(0%,0%,0%);fill-opacity:1;" d="M 28.378906 89.019531 L 21.40625 89.019531 C 21.070312 89.019531 20.796875 88.746094 20.796875 88.410156 L 20.796875 82.464844 C 20.796875 82.128906 21.070312 81.859375 21.40625 81.859375 C 21.742188 81.859375 22.011719 82.128906 22.011719 82.464844 L 22.011719 87.804688 L 28.007812 87.804688 L 30.9375 82.183594 C 31.09375 81.886719 31.460938 81.773438 31.757812 81.925781 C 32.054688 82.082031 32.167969 82.449219 32.015625 82.746094 L 28.917969 88.695312 C 28.8125 88.894531 28.601562 89.019531 28.378906 89.019531 Z M 28.378906 89.019531 "/>
</g>
<g clip-path="url(#clip3)" clip-rule="nonzero">
<path style=" stroke:none;fill-rule:evenodd;fill:rgb(0%,0%,0%);fill-opacity:1;" d="M 77.574219 89.019531 L 70.601562 89.019531 C 70.378906 89.019531 70.167969 88.894531 70.066406 88.695312 L 66.964844 82.746094 C 66.808594 82.449219 66.925781 82.082031 67.222656 81.925781 C 67.519531 81.773438 67.886719 81.886719 68.042969 82.183594 L 70.972656 87.804688 L 76.96875 87.804688 L 76.96875 82.464844 C 76.96875 82.128906 77.242188 81.859375 77.574219 81.859375 C 77.910156 81.859375 78.183594 82.128906 78.183594 82.464844 L 78.183594 88.410156 C 78.183594 88.746094 77.910156 89.019531 77.574219 89.019531 Z M 77.574219 89.019531 "/>
</g>
<g clip-path="url(#clip4)" clip-rule="nonzero">
<path style=" stroke:none;fill-rule:evenodd;fill:rgb(0%,0%,0%);fill-opacity:1;" d="M 49.492188 20.078125 C 49.351562 20.078125 49.207031 20.03125 49.09375 19.929688 L 38.957031 11.148438 C 38.703125 10.929688 38.675781 10.546875 38.898438 10.292969 C 39.113281 10.039062 39.5 10.011719 39.753906 10.230469 L 49.886719 19.011719 C 50.140625 19.234375 50.167969 19.617188 49.949219 19.867188 C 49.828125 20.007812 49.660156 20.078125 49.492188 20.078125 Z M 49.492188 20.078125 "/>
</g>
<g clip-path="url(#clip5)" clip-rule="nonzero">
<path style=" stroke:none;fill-rule:evenodd;fill:rgb(0%,0%,0%);fill-opacity:1;" d="M 49.492188 20.078125 C 49.320312 20.078125 49.152344 20.007812 49.03125 19.867188 C 48.8125 19.617188 48.839844 19.234375 49.09375 19.011719 L 59.226562 10.230469 C 59.484375 10.011719 59.867188 10.039062 60.085938 10.292969 C 60.304688 10.546875 60.277344 10.929688 60.023438 11.148438 L 49.886719 19.929688 C 49.773438 20.03125 49.632812 20.078125 49.492188 20.078125 Z M 49.492188 20.078125 "/>
</g>
<path style=" stroke:none;fill-rule:evenodd;fill:rgb(0%,0%,0%);fill-opacity:1;" d="M 55.816406 26.410156 C 55.480469 26.410156 55.210938 26.136719 55.210938 25.800781 C 55.210938 22.644531 52.644531 20.078125 49.492188 20.078125 C 46.335938 20.078125 43.769531 22.644531 43.769531 25.800781 C 43.769531 26.136719 43.496094 26.410156 43.164062 26.410156 C 42.828125 26.410156 42.554688 26.136719 42.554688 25.800781 C 42.554688 21.976562 45.667969 18.863281 49.492188 18.863281 C 53.3125 18.863281 56.425781 21.976562 56.425781 25.800781 C 56.425781 26.136719 56.152344 26.410156 55.816406 26.410156 Z M 55.816406 26.410156 "/>
<path style=" stroke:none;fill-rule:evenodd;fill:rgb(0%,0%,0%);fill-opacity:1;" d="M 80.949219 46.871094 C 79.515625 46.871094 78.34375 48.039062 78.34375 49.476562 C 78.34375 50.914062 79.515625 52.085938 80.949219 52.085938 C 82.386719 52.085938 83.558594 50.914062 83.558594 49.476562 C 83.558594 48.039062 82.386719 46.871094 80.949219 46.871094 Z M 80.949219 53.296875 C 78.84375 53.296875 77.132812 51.585938 77.132812 49.476562 C 77.132812 47.371094 78.84375 45.65625 80.949219 45.65625 C 83.058594 45.65625 84.773438 47.371094 84.773438 49.476562 C 84.773438 51.585938 83.058594 53.296875 80.949219 53.296875 Z M 80.949219 53.296875 "/>
<path style=" stroke:none;fill-rule:evenodd;fill:rgb(0%,0%,0%);fill-opacity:1;" d="M 80.949219 56.183594 C 79.515625 56.183594 78.34375 57.351562 78.34375 58.789062 C 78.34375 60.226562 79.515625 61.394531 80.949219 61.394531 C 82.386719 61.394531 83.558594 60.226562 83.558594 58.789062 C 83.558594 57.351562 82.386719 56.183594 80.949219 56.183594 Z M 80.949219 62.609375 C 78.84375 62.609375 77.132812 60.894531 77.132812 58.789062 C 77.132812 56.683594 78.84375 54.96875 80.949219 54.96875 C 83.058594 54.96875 84.773438 56.683594 84.773438 58.789062 C 84.773438 60.894531 83.058594 62.609375 80.949219 62.609375 Z M 80.949219 62.609375 "/>
<path style=" stroke:none;fill-rule:evenodd;fill:rgb(87.843137%,96.470588%,100%);fill-opacity:1;" d="M 73.394531 66.039062 L 73.394531 42.226562 C 73.394531 37.386719 69.460938 33.449219 64.621094 33.449219 L 25.582031 33.449219 C 20.742188 33.449219 16.804688 37.386719 16.804688 42.226562 L 16.804688 66.039062 C 16.804688 70.882812 20.738281 74.820312 25.582031 74.820312 L 64.621094 74.820312 C 69.460938 74.820312 73.394531 70.882812 73.394531 66.039062 Z M 73.394531 66.039062 "/>
<path style=" stroke:none;fill-rule:evenodd;fill:rgb(100%,87.843137%,50.980392%);fill-opacity:1;" d="M 43.800781 25.195312 L 55.179688 25.195312 C 54.875 22.324219 52.441406 20.078125 49.492188 20.078125 C 46.542969 20.078125 44.105469 22.324219 43.800781 25.195312 Z M 43.800781 25.195312 "/>
<path style=" stroke:none;fill-rule:evenodd;fill:rgb(100%,87.843137%,50.980392%);fill-opacity:1;" d="M 80.34375 33.5 C 78.648438 33.789062 77.351562 35.269531 77.351562 37.046875 C 77.351562 38.824219 78.648438 40.304688 80.34375 40.59375 Z M 80.34375 33.5 "/>
<path style=" stroke:none;fill-rule:evenodd;fill:rgb(100%,87.843137%,50.980392%);fill-opacity:1;" d="M 81.558594 33.5 L 81.558594 40.59375 C 83.253906 40.304688 84.550781 38.824219 84.550781 37.046875 C 84.550781 35.269531 83.253906 33.789062 81.558594 33.5 Z M 81.558594 33.5 "/>
<path style=" stroke:none;fill-rule:evenodd;fill:rgb(100%,87.843137%,50.980392%);fill-opacity:1;" d="M 83.558594 49.476562 C 83.558594 48.039062 82.386719 46.871094 80.949219 46.871094 C 79.515625 46.871094 78.34375 48.039062 78.34375 49.476562 C 78.34375 50.914062 79.515625 52.085938 80.949219 52.085938 C 82.386719 52.085938 83.558594 50.914062 83.558594 49.476562 Z M 83.558594 49.476562 "/>
<path style=" stroke:none;fill-rule:evenodd;fill:rgb(100%,87.843137%,50.980392%);fill-opacity:1;" d="M 83.558594 58.789062 C 83.558594 57.351562 82.386719 56.183594 80.949219 56.183594 C 79.515625 56.183594 78.34375 57.351562 78.34375 58.789062 C 78.34375 60.226562 79.515625 61.394531 80.949219 61.394531 C 82.386719 61.394531 83.558594 60.226562 83.558594 58.789062 Z M 83.558594 58.789062 "/>
<path style=" stroke:none;fill-rule:evenodd;fill:rgb(68.627451%,71.372549%,72.54902%);fill-opacity:1;" d="M 28.007812 87.804688 L 30.476562 83.074219 L 22.011719 83.074219 L 22.011719 87.804688 Z M 28.007812 87.804688 "/>
<path style=" stroke:none;fill-rule:evenodd;fill:rgb(68.627451%,71.372549%,72.54902%);fill-opacity:1;" d="M 68.503906 83.074219 L 70.972656 87.804688 L 76.96875 87.804688 L 76.96875 83.074219 Z M 68.503906 83.074219 "/>
</g>
</svg>
