<?xml version="1.0" encoding="UTF-8"?>
<svg xmlns="http://www.w3.org/2000/svg" xmlns:xlink="http://www.w3.org/1999/xlink" width="70px" height="70px" viewBox="0 0 70 70" version="1.1">
<defs>
<clipPath id="clip1">
  <path d="M 7.28125 17.546875 L 62 17.546875 L 62 58.238281 L 7.28125 58.238281 Z M 7.28125 17.546875 "/>
</clipPath>
<clipPath id="clip2">
  <path d="M 14.375 57.121094 L 22.585938 57.121094 L 22.585938 62.300781 L 14.375 62.300781 Z M 14.375 57.121094 "/>
</clipPath>
<clipPath id="clip3">
  <path d="M 46.667969 57.121094 L 54.878906 57.121094 L 54.878906 62.300781 L 46.667969 62.300781 Z M 46.667969 57.121094 "/>
</clipPath>
<clipPath id="clip4">
  <path d="M 27.066406 7 L 35.09375 7 L 35.09375 14.1875 L 27.066406 14.1875 Z M 27.066406 7 "/>
</clipPath>
<clipPath id="clip5">
  <path d="M 34.160156 7 L 42.1875 7 L 42.1875 14.1875 L 34.160156 14.1875 Z M 34.160156 7 "/>
</clipPath>
</defs>
<g id="surface1">
<g clip-path="url(#clip1)" clip-rule="nonzero">
<path style=" stroke:none;fill-rule:evenodd;fill:rgb(94.509804%,55.294118%,15.686275%);fill-opacity:1;" d="M 14.984375 57.300781 L 54.304688 57.300781 C 54.539062 57.300781 54.726562 57.492188 54.726562 57.726562 L 54.726562 58.148438 L 58.867188 58.148438 C 60.589844 58.148438 61.988281 56.75 61.988281 55.03125 L 61.988281 20.757812 C 61.988281 19.035156 60.589844 17.636719 58.867188 17.636719 L 39.480469 17.636719 C 39.492188 17.777344 39.496094 17.917969 39.496094 18.0625 C 39.496094 18.296875 39.304688 18.484375 39.074219 18.484375 L 30.222656 18.484375 C 30.21875 18.484375 30.214844 18.484375 30.214844 18.484375 C 30.210938 18.484375 30.210938 18.484375 30.207031 18.484375 C 29.976562 18.480469 29.789062 18.292969 29.789062 18.0625 C 29.789062 17.917969 29.796875 17.777344 29.808594 17.636719 L 10.417969 17.636719 C 8.695312 17.636719 7.296875 19.035156 7.296875 20.757812 L 7.296875 55.03125 C 7.296875 56.75 8.695312 58.148438 10.417969 58.148438 L 14.558594 58.148438 L 14.558594 57.726562 C 14.558594 57.492188 14.75 57.300781 14.984375 57.300781 Z M 45.234375 53.222656 L 17.90625 53.222656 C 14.050781 53.222656 10.914062 50.085938 10.914062 46.226562 L 10.914062 29.558594 C 10.914062 25.703125 14.050781 22.5625 17.90625 22.5625 L 45.234375 22.5625 C 49.089844 22.5625 52.226562 25.703125 52.226562 29.558594 L 52.226562 46.226562 C 52.226562 50.085938 49.089844 53.222656 45.234375 53.222656 Z M 56.664062 43.828125 C 55.191406 43.828125 53.992188 42.628906 53.992188 41.152344 C 53.992188 39.675781 55.191406 38.476562 56.664062 38.476562 C 58.140625 38.476562 59.339844 39.675781 59.339844 41.152344 C 59.339844 42.628906 58.140625 43.828125 56.664062 43.828125 Z M 59.398438 53.222656 L 53.933594 53.222656 C 53.699219 53.222656 53.507812 53.03125 53.507812 52.796875 C 53.507812 52.5625 53.699219 52.375 53.933594 52.375 L 59.398438 52.375 C 59.632812 52.375 59.824219 52.5625 59.824219 52.796875 C 59.824219 53.03125 59.632812 53.222656 59.398438 53.222656 Z M 59.398438 50.964844 L 53.933594 50.964844 C 53.699219 50.964844 53.507812 50.773438 53.507812 50.539062 C 53.507812 50.304688 53.699219 50.113281 53.933594 50.113281 L 59.398438 50.113281 C 59.632812 50.113281 59.824219 50.304688 59.824219 50.539062 C 59.824219 50.773438 59.632812 50.964844 59.398438 50.964844 Z M 59.398438 48.703125 L 53.933594 48.703125 C 53.699219 48.703125 53.507812 48.511719 53.507812 48.277344 C 53.507812 48.042969 53.699219 47.851562 53.933594 47.851562 L 59.398438 47.851562 C 59.632812 47.851562 59.824219 48.042969 59.824219 48.277344 C 59.824219 48.511719 59.632812 48.703125 59.398438 48.703125 Z M 56.664062 37.308594 C 55.191406 37.308594 53.992188 36.109375 53.992188 34.632812 C 53.992188 33.160156 55.191406 31.960938 56.664062 31.960938 C 58.140625 31.960938 59.339844 33.160156 59.339844 34.632812 C 59.339844 36.109375 58.140625 37.308594 56.664062 37.308594 Z M 56.664062 29.300781 C 54.808594 29.300781 53.296875 27.789062 53.296875 25.933594 C 53.296875 24.074219 54.808594 22.5625 56.664062 22.5625 C 56.429688 22.5625 56.242188 22.753906 56.242188 22.988281 L 56.242188 28.878906 C 56.242188 29.113281 56.433594 29.300781 56.664062 29.300781 Z M 57.089844 28.417969 L 57.089844 22.988281 C 57.089844 22.753906 56.902344 22.5625 56.664062 22.5625 C 58.523438 22.5625 60.035156 24.074219 60.035156 25.933594 C 60.035156 27.789062 58.523438 29.300781 56.664062 29.300781 C 56.902344 29.300781 57.089844 29.113281 57.089844 28.878906 Z M 57.089844 28.417969 "/>
<path style=" stroke:none;fill-rule:evenodd;fill:rgb(0%,0%,0%);fill-opacity:1;" d="M 10.417969 18.484375 C 9.164062 18.484375 8.148438 19.503906 8.148438 20.757812 L 8.148438 55.03125 C 8.148438 56.28125 9.164062 57.300781 10.417969 57.300781 L 58.867188 57.300781 C 60.121094 57.300781 61.140625 56.28125 61.140625 55.03125 L 61.140625 20.757812 C 61.140625 19.503906 60.121094 18.484375 58.867188 18.484375 Z M 58.867188 58.148438 L 10.417969 58.148438 C 8.695312 58.148438 7.296875 56.75 7.296875 55.03125 L 7.296875 20.757812 C 7.296875 19.035156 8.695312 17.636719 10.417969 17.636719 L 58.867188 17.636719 C 60.589844 17.636719 61.988281 19.035156 61.988281 20.757812 L 61.988281 55.03125 C 61.988281 56.75 60.589844 58.148438 58.867188 58.148438 Z M 58.867188 58.148438 "/>
</g>
<path style=" stroke:none;fill-rule:evenodd;fill:rgb(0%,0%,0%);fill-opacity:1;" d="M 17.90625 23.414062 C 14.519531 23.414062 11.761719 26.167969 11.761719 29.558594 L 11.761719 46.226562 C 11.761719 49.617188 14.519531 52.375 17.90625 52.375 L 45.234375 52.375 C 48.621094 52.375 51.378906 49.617188 51.378906 46.226562 L 51.378906 29.558594 C 51.378906 26.167969 48.621094 23.414062 45.234375 23.414062 Z M 45.234375 53.222656 L 17.90625 53.222656 C 14.050781 53.222656 10.914062 50.085938 10.914062 46.226562 L 10.914062 29.558594 C 10.914062 25.703125 14.050781 22.5625 17.90625 22.5625 L 45.234375 22.5625 C 49.089844 22.5625 52.226562 25.703125 52.226562 29.558594 L 52.226562 46.226562 C 52.226562 50.085938 49.089844 53.222656 45.234375 53.222656 Z M 45.234375 53.222656 "/>
<path style=" stroke:none;fill-rule:evenodd;fill:rgb(0%,0%,0%);fill-opacity:1;" d="M 59.398438 48.699219 L 53.933594 48.699219 C 53.699219 48.699219 53.507812 48.511719 53.507812 48.277344 C 53.507812 48.042969 53.699219 47.851562 53.933594 47.851562 L 59.398438 47.851562 C 59.636719 47.851562 59.824219 48.042969 59.824219 48.277344 C 59.824219 48.511719 59.636719 48.703125 59.398438 48.699219 Z M 59.398438 48.699219 "/>
<path style=" stroke:none;fill-rule:evenodd;fill:rgb(0%,0%,0%);fill-opacity:1;" d="M 59.398438 50.964844 L 53.933594 50.964844 C 53.699219 50.964844 53.507812 50.773438 53.507812 50.539062 C 53.507812 50.304688 53.699219 50.113281 53.933594 50.113281 L 59.398438 50.113281 C 59.636719 50.113281 59.824219 50.304688 59.824219 50.539062 C 59.824219 50.773438 59.636719 50.964844 59.398438 50.964844 Z M 59.398438 50.964844 "/>
<path style=" stroke:none;fill-rule:evenodd;fill:rgb(0%,0%,0%);fill-opacity:1;" d="M 59.398438 53.222656 L 53.933594 53.222656 C 53.699219 53.222656 53.507812 53.03125 53.507812 52.796875 C 53.507812 52.5625 53.699219 52.375 53.933594 52.375 L 59.398438 52.375 C 59.636719 52.375 59.824219 52.5625 59.824219 52.796875 C 59.824219 53.03125 59.636719 53.222656 59.398438 53.222656 Z M 59.398438 53.222656 "/>
<path style=" stroke:none;fill-rule:evenodd;fill:rgb(0%,0%,0%);fill-opacity:1;" d="M 56.664062 23.414062 C 55.277344 23.414062 54.148438 24.542969 54.148438 25.933594 C 54.148438 27.320312 55.277344 28.453125 56.664062 28.453125 C 58.054688 28.453125 59.183594 27.320312 59.183594 25.933594 C 59.183594 24.542969 58.054688 23.414062 56.664062 23.414062 Z M 56.664062 29.300781 C 54.808594 29.300781 53.296875 27.789062 53.296875 25.933594 C 53.296875 24.074219 54.808594 22.5625 56.664062 22.5625 C 58.523438 22.5625 60.035156 24.074219 60.035156 25.933594 C 60.035156 27.789062 58.523438 29.300781 56.664062 29.300781 Z M 56.664062 29.300781 "/>
<path style=" stroke:none;fill-rule:evenodd;fill:rgb(0%,0%,0%);fill-opacity:1;" d="M 56.664062 29.300781 C 56.433594 29.300781 56.242188 29.109375 56.242188 28.878906 L 56.242188 22.988281 C 56.242188 22.753906 56.433594 22.5625 56.664062 22.5625 C 56.902344 22.5625 57.089844 22.753906 57.089844 22.988281 L 57.089844 28.878906 C 57.089844 29.109375 56.902344 29.300781 56.664062 29.300781 Z M 56.664062 29.300781 "/>
<g clip-path="url(#clip2)" clip-rule="nonzero">
<path style=" stroke:none;fill-rule:evenodd;fill:rgb(0%,0%,0%);fill-opacity:1;" d="M 19.863281 62.3125 L 14.984375 62.3125 C 14.75 62.3125 14.558594 62.121094 14.558594 61.886719 L 14.558594 57.726562 C 14.558594 57.492188 14.75 57.300781 14.984375 57.300781 C 15.21875 57.300781 15.410156 57.492188 15.410156 57.726562 L 15.410156 61.464844 L 19.605469 61.464844 L 21.65625 57.53125 C 21.765625 57.320312 22.023438 57.242188 22.230469 57.347656 C 22.4375 57.457031 22.519531 57.714844 22.410156 57.921875 L 20.242188 62.085938 C 20.167969 62.226562 20.023438 62.3125 19.863281 62.3125 Z M 19.863281 62.3125 "/>
</g>
<g clip-path="url(#clip3)" clip-rule="nonzero">
<path style=" stroke:none;fill-rule:evenodd;fill:rgb(0%,0%,0%);fill-opacity:1;" d="M 54.304688 62.3125 L 49.421875 62.3125 C 49.265625 62.3125 49.117188 62.226562 49.046875 62.085938 L 46.875 57.921875 C 46.765625 57.714844 46.847656 57.457031 47.054688 57.347656 C 47.265625 57.242188 47.519531 57.320312 47.628906 57.53125 L 49.679688 61.464844 L 53.878906 61.464844 L 53.878906 57.726562 C 53.878906 57.492188 54.070312 57.300781 54.304688 57.300781 C 54.539062 57.300781 54.726562 57.492188 54.726562 57.726562 L 54.726562 61.886719 C 54.726562 62.121094 54.539062 62.3125 54.304688 62.3125 Z M 54.304688 62.3125 "/>
</g>
<g clip-path="url(#clip4)" clip-rule="nonzero">
<path style=" stroke:none;fill-rule:evenodd;fill:rgb(0%,0%,0%);fill-opacity:1;" d="M 34.644531 14.054688 C 34.546875 14.054688 34.445312 14.019531 34.367188 13.949219 L 27.269531 7.804688 C 27.09375 7.648438 27.074219 7.382812 27.226562 7.203125 C 27.378906 7.027344 27.648438 7.007812 27.828125 7.160156 L 34.921875 13.308594 C 35.097656 13.464844 35.117188 13.730469 34.964844 13.90625 C 34.878906 14.003906 34.761719 14.054688 34.644531 14.054688 Z M 34.644531 14.054688 "/>
</g>
<g clip-path="url(#clip5)" clip-rule="nonzero">
<path style=" stroke:none;fill-rule:evenodd;fill:rgb(0%,0%,0%);fill-opacity:1;" d="M 34.644531 14.054688 C 34.523438 14.054688 34.40625 14.003906 34.320312 13.90625 C 34.167969 13.730469 34.1875 13.464844 34.367188 13.308594 L 41.460938 7.160156 C 41.636719 7.007812 41.90625 7.027344 42.058594 7.203125 C 42.214844 7.382812 42.191406 7.648438 42.015625 7.804688 L 34.921875 13.949219 C 34.839844 14.019531 34.742188 14.054688 34.644531 14.054688 Z M 34.644531 14.054688 "/>
</g>
<path style=" stroke:none;fill-rule:evenodd;fill:rgb(0%,0%,0%);fill-opacity:1;" d="M 39.074219 18.484375 C 38.835938 18.484375 38.648438 18.296875 38.648438 18.0625 C 38.648438 15.851562 36.851562 14.054688 34.644531 14.054688 C 32.433594 14.054688 30.640625 15.851562 30.640625 18.0625 C 30.640625 18.296875 30.449219 18.484375 30.214844 18.484375 C 29.980469 18.484375 29.789062 18.296875 29.789062 18.0625 C 29.789062 15.382812 31.964844 13.207031 34.644531 13.207031 C 37.320312 13.207031 39.496094 15.382812 39.496094 18.0625 C 39.496094 18.296875 39.304688 18.484375 39.074219 18.484375 Z M 39.074219 18.484375 "/>
<path style=" stroke:none;fill-rule:evenodd;fill:rgb(0%,0%,0%);fill-opacity:1;" d="M 56.664062 32.808594 C 55.660156 32.808594 54.839844 33.628906 54.839844 34.632812 C 54.839844 35.640625 55.660156 36.460938 56.664062 36.460938 C 57.671875 36.460938 58.492188 35.640625 58.492188 34.632812 C 58.492188 33.628906 57.671875 32.808594 56.664062 32.808594 Z M 56.664062 37.308594 C 55.191406 37.308594 53.992188 36.109375 53.992188 34.632812 C 53.992188 33.160156 55.191406 31.960938 56.664062 31.960938 C 58.140625 31.960938 59.339844 33.160156 59.339844 34.632812 C 59.339844 36.109375 58.140625 37.308594 56.664062 37.308594 Z M 56.664062 37.308594 "/>
<path style=" stroke:none;fill-rule:evenodd;fill:rgb(0%,0%,0%);fill-opacity:1;" d="M 56.664062 39.328125 C 55.660156 39.328125 54.839844 40.144531 54.839844 41.152344 C 54.839844 42.160156 55.660156 42.976562 56.664062 42.976562 C 57.671875 42.976562 58.492188 42.160156 58.492188 41.152344 C 58.492188 40.144531 57.671875 39.328125 56.664062 39.328125 Z M 56.664062 43.828125 C 55.191406 43.828125 53.992188 42.628906 53.992188 41.152344 C 53.992188 39.675781 55.191406 38.476562 56.664062 38.476562 C 58.140625 38.476562 59.339844 39.675781 59.339844 41.152344 C 59.339844 42.628906 58.140625 43.828125 56.664062 43.828125 Z M 56.664062 43.828125 "/>
<path style=" stroke:none;fill-rule:evenodd;fill:rgb(87.843137%,96.470588%,100%);fill-opacity:1;" d="M 51.378906 46.226562 L 51.378906 29.558594 C 51.378906 26.167969 48.621094 23.414062 45.234375 23.414062 L 17.90625 23.414062 C 14.519531 23.414062 11.761719 26.167969 11.761719 29.558594 L 11.761719 46.226562 C 11.761719 49.617188 14.519531 52.375 17.90625 52.375 L 45.234375 52.375 C 48.621094 52.375 51.378906 49.617188 51.378906 46.226562 Z M 51.378906 46.226562 "/>
<path style=" stroke:none;fill-rule:evenodd;fill:rgb(100%,87.843137%,50.980392%);fill-opacity:1;" d="M 30.660156 17.636719 L 38.625 17.636719 C 38.414062 15.625 36.707031 14.054688 34.644531 14.054688 C 32.578125 14.054688 30.875 15.625 30.660156 17.636719 Z M 30.660156 17.636719 "/>
<path style=" stroke:none;fill-rule:evenodd;fill:rgb(100%,87.843137%,50.980392%);fill-opacity:1;" d="M 56.242188 23.449219 C 55.054688 23.652344 54.148438 24.6875 54.148438 25.933594 C 54.148438 27.175781 55.054688 28.214844 56.242188 28.417969 Z M 56.242188 23.449219 "/>
<path style=" stroke:none;fill-rule:evenodd;fill:rgb(100%,87.843137%,50.980392%);fill-opacity:1;" d="M 57.089844 23.449219 L 57.089844 28.417969 C 58.277344 28.214844 59.183594 27.175781 59.183594 25.933594 C 59.183594 24.6875 58.277344 23.652344 57.089844 23.449219 Z M 57.089844 23.449219 "/>
<path style=" stroke:none;fill-rule:evenodd;fill:rgb(100%,87.843137%,50.980392%);fill-opacity:1;" d="M 58.488281 34.632812 C 58.488281 33.628906 57.671875 32.808594 56.664062 32.808594 C 55.660156 32.808594 54.839844 33.628906 54.839844 34.632812 C 54.839844 35.640625 55.660156 36.460938 56.664062 36.460938 C 57.671875 36.460938 58.488281 35.640625 58.488281 34.632812 Z M 58.488281 34.632812 "/>
<path style=" stroke:none;fill-rule:evenodd;fill:rgb(100%,87.843137%,50.980392%);fill-opacity:1;" d="M 58.488281 41.152344 C 58.488281 40.144531 57.671875 39.328125 56.664062 39.328125 C 55.660156 39.328125 54.839844 40.144531 54.839844 41.152344 C 54.839844 42.160156 55.660156 42.976562 56.664062 42.976562 C 57.671875 42.976562 58.488281 42.160156 58.488281 41.152344 Z M 58.488281 41.152344 "/>
<path style=" stroke:none;fill-rule:evenodd;fill:rgb(68.627451%,71.372549%,72.54902%);fill-opacity:1;" d="M 19.605469 61.464844 L 21.332031 58.152344 L 15.410156 58.152344 L 15.410156 61.464844 Z M 19.605469 61.464844 "/>
<path style=" stroke:none;fill-rule:evenodd;fill:rgb(68.627451%,71.372549%,72.54902%);fill-opacity:1;" d="M 47.953125 58.152344 L 49.679688 61.464844 L 53.878906 61.464844 L 53.878906 58.152344 Z M 47.953125 58.152344 "/>
</g>
</svg>
