<?xml version="1.0" encoding="UTF-8"?>
<svg xmlns="http://www.w3.org/2000/svg" xmlns:xlink="http://www.w3.org/1999/xlink" width="50px" height="50px" viewBox="0 0 50 50" version="1.1">
<defs>
<clipPath id="clip1">
  <path d="M 5.199219 12.535156 L 44.34375 12.535156 L 44.34375 41.601562 L 5.199219 41.601562 Z M 5.199219 12.535156 "/>
</clipPath>
<clipPath id="clip2">
  <path d="M 10.265625 40.800781 L 16.132812 40.800781 L 16.132812 44.5 L 10.265625 44.5 Z M 10.265625 40.800781 "/>
</clipPath>
<clipPath id="clip3">
  <path d="M 33.332031 40.800781 L 39.199219 40.800781 L 39.199219 44.5 L 33.332031 44.5 Z M 33.332031 40.800781 "/>
</clipPath>
<clipPath id="clip4">
  <path d="M 19.332031 5 L 25.066406 5 L 25.066406 10.132812 L 19.332031 10.132812 Z M 19.332031 5 "/>
</clipPath>
<clipPath id="clip5">
  <path d="M 24.398438 5 L 30.132812 5 L 30.132812 10.132812 L 24.398438 10.132812 Z M 24.398438 5 "/>
</clipPath>
</defs>
<g id="surface1">
<g clip-path="url(#clip1)" clip-rule="nonzero">
<path style=" stroke:none;fill-rule:evenodd;fill:rgb(94.509804%,55.294118%,15.686275%);fill-opacity:1;" d="M 10.703125 40.929688 L 38.789062 40.929688 C 38.957031 40.929688 39.089844 41.066406 39.089844 41.234375 L 39.089844 41.535156 L 42.050781 41.535156 C 43.277344 41.535156 44.277344 40.535156 44.277344 39.308594 L 44.277344 14.828125 C 44.277344 13.597656 43.277344 12.597656 42.050781 12.597656 L 28.199219 12.597656 C 28.207031 12.699219 28.210938 12.796875 28.210938 12.902344 C 28.210938 13.066406 28.074219 13.203125 27.910156 13.203125 L 21.585938 13.203125 C 21.585938 13.203125 21.582031 13.203125 21.582031 13.203125 C 21.578125 13.203125 21.578125 13.203125 21.574219 13.203125 C 21.410156 13.199219 21.277344 13.066406 21.277344 12.902344 C 21.277344 12.796875 21.28125 12.699219 21.292969 12.597656 L 7.441406 12.597656 C 6.210938 12.597656 5.210938 13.597656 5.210938 14.828125 L 5.210938 39.308594 C 5.210938 40.535156 6.210938 41.535156 7.441406 41.535156 L 10.398438 41.535156 L 10.398438 41.230469 C 10.398438 41.066406 10.535156 40.929688 10.703125 40.929688 Z M 32.308594 38.015625 L 12.789062 38.015625 C 10.035156 38.015625 7.792969 35.773438 7.792969 33.019531 L 7.796875 21.113281 C 7.796875 18.359375 10.035156 16.117188 12.789062 16.117188 L 32.308594 16.117188 C 35.0625 16.117188 37.304688 18.359375 37.304688 21.113281 L 37.304688 33.019531 C 37.304688 35.773438 35.0625 38.015625 32.308594 38.015625 Z M 40.476562 31.304688 C 39.421875 31.304688 38.566406 30.449219 38.566406 29.394531 C 38.566406 28.339844 39.421875 27.484375 40.476562 27.484375 C 41.527344 27.484375 42.386719 28.339844 42.386719 29.394531 C 42.386719 30.449219 41.527344 31.304688 40.476562 31.304688 Z M 42.429688 38.015625 L 38.523438 38.015625 C 38.355469 38.015625 38.21875 37.878906 38.21875 37.714844 C 38.21875 37.546875 38.355469 37.410156 38.523438 37.410156 L 42.429688 37.410156 C 42.597656 37.410156 42.730469 37.546875 42.730469 37.714844 C 42.730469 37.878906 42.597656 38.015625 42.429688 38.015625 Z M 42.429688 36.402344 L 38.523438 36.402344 C 38.355469 36.402344 38.21875 36.265625 38.21875 36.097656 C 38.21875 35.929688 38.355469 35.792969 38.523438 35.792969 L 42.429688 35.792969 C 42.597656 35.792969 42.730469 35.929688 42.730469 36.097656 C 42.730469 36.265625 42.597656 36.402344 42.429688 36.402344 Z M 42.429688 34.785156 L 38.523438 34.785156 C 38.355469 34.785156 38.21875 34.652344 38.21875 34.484375 C 38.21875 34.316406 38.355469 34.179688 38.523438 34.179688 L 42.429688 34.179688 C 42.597656 34.179688 42.730469 34.316406 42.730469 34.484375 C 42.730469 34.652344 42.597656 34.785156 42.429688 34.785156 Z M 40.476562 26.648438 C 39.421875 26.648438 38.566406 25.792969 38.566406 24.738281 C 38.566406 23.683594 39.421875 22.828125 40.476562 22.828125 C 41.527344 22.828125 42.386719 23.683594 42.386719 24.738281 C 42.386719 25.792969 41.527344 26.648438 40.476562 26.648438 Z M 40.476562 20.929688 C 39.148438 20.929688 38.070312 19.851562 38.070312 18.523438 C 38.070312 17.195312 39.148438 16.117188 40.476562 16.117188 C 40.308594 16.117188 40.171875 16.253906 40.171875 16.421875 L 40.171875 20.625 C 40.171875 20.792969 40.308594 20.929688 40.476562 20.929688 Z M 40.777344 20.296875 L 40.777344 16.421875 C 40.777344 16.253906 40.644531 16.117188 40.476562 16.117188 C 41.800781 16.117188 42.882812 17.195312 42.882812 18.523438 C 42.882812 19.851562 41.800781 20.929688 40.476562 20.929688 C 40.644531 20.929688 40.777344 20.792969 40.777344 20.625 Z M 40.777344 20.296875 "/>
<path style=" stroke:none;fill-rule:evenodd;fill:rgb(0%,0%,0%);fill-opacity:1;" d="M 7.441406 13.203125 C 6.546875 13.203125 5.820312 13.933594 5.820312 14.828125 L 5.820312 39.308594 C 5.820312 40.203125 6.546875 40.929688 7.441406 40.929688 L 42.050781 40.929688 C 42.945312 40.929688 43.671875 40.203125 43.671875 39.308594 L 43.671875 14.828125 C 43.671875 13.933594 42.945312 13.203125 42.050781 13.203125 Z M 42.050781 41.535156 L 7.441406 41.535156 C 6.210938 41.535156 5.210938 40.535156 5.210938 39.308594 L 5.210938 14.828125 C 5.210938 13.597656 6.210938 12.597656 7.441406 12.597656 L 42.050781 12.597656 C 43.277344 12.597656 44.277344 13.597656 44.277344 14.828125 L 44.277344 39.308594 C 44.277344 40.535156 43.277344 41.535156 42.050781 41.535156 Z M 42.050781 41.535156 "/>
</g>
<path style=" stroke:none;fill-rule:evenodd;fill:rgb(0%,0%,0%);fill-opacity:1;" d="M 12.789062 16.722656 C 10.371094 16.722656 8.402344 18.691406 8.402344 21.113281 L 8.402344 33.019531 C 8.402344 35.441406 10.371094 37.410156 12.789062 37.410156 L 32.308594 37.410156 C 34.730469 37.410156 36.699219 35.441406 36.699219 33.019531 L 36.699219 21.113281 C 36.699219 18.691406 34.730469 16.722656 32.308594 16.722656 Z M 32.308594 38.015625 L 12.789062 38.015625 C 10.035156 38.015625 7.792969 35.773438 7.792969 33.019531 L 7.796875 21.113281 C 7.796875 18.359375 10.035156 16.117188 12.789062 16.117188 L 32.308594 16.117188 C 35.0625 16.117188 37.304688 18.359375 37.304688 21.113281 L 37.304688 33.019531 C 37.304688 35.773438 35.0625 38.015625 32.308594 38.015625 Z M 32.308594 38.015625 "/>
<path style=" stroke:none;fill-rule:evenodd;fill:rgb(0%,0%,0%);fill-opacity:1;" d="M 42.429688 34.785156 L 38.523438 34.785156 C 38.355469 34.785156 38.21875 34.652344 38.21875 34.484375 C 38.21875 34.316406 38.355469 34.179688 38.523438 34.179688 L 42.429688 34.179688 C 42.597656 34.179688 42.730469 34.316406 42.730469 34.484375 C 42.730469 34.652344 42.597656 34.785156 42.429688 34.785156 Z M 42.429688 34.785156 "/>
<path style=" stroke:none;fill-rule:evenodd;fill:rgb(0%,0%,0%);fill-opacity:1;" d="M 42.429688 36.402344 L 38.523438 36.402344 C 38.355469 36.402344 38.21875 36.265625 38.21875 36.097656 C 38.21875 35.929688 38.355469 35.792969 38.523438 35.792969 L 42.429688 35.792969 C 42.597656 35.792969 42.730469 35.929688 42.730469 36.097656 C 42.730469 36.265625 42.597656 36.402344 42.429688 36.402344 Z M 42.429688 36.402344 "/>
<path style=" stroke:none;fill-rule:evenodd;fill:rgb(0%,0%,0%);fill-opacity:1;" d="M 42.429688 38.015625 L 38.523438 38.015625 C 38.355469 38.015625 38.21875 37.878906 38.21875 37.714844 C 38.21875 37.546875 38.355469 37.410156 38.523438 37.410156 L 42.429688 37.410156 C 42.597656 37.410156 42.730469 37.546875 42.730469 37.714844 C 42.730469 37.878906 42.597656 38.015625 42.429688 38.015625 Z M 42.429688 38.015625 "/>
<path style=" stroke:none;fill-rule:evenodd;fill:rgb(0%,0%,0%);fill-opacity:1;" d="M 40.476562 16.722656 C 39.484375 16.722656 38.675781 17.53125 38.675781 18.523438 C 38.675781 19.515625 39.484375 20.324219 40.476562 20.324219 C 41.46875 20.324219 42.273438 19.515625 42.273438 18.523438 C 42.273438 17.53125 41.46875 16.722656 40.476562 16.722656 Z M 40.476562 20.929688 C 39.148438 20.929688 38.070312 19.851562 38.070312 18.523438 C 38.070312 17.195312 39.148438 16.117188 40.476562 16.117188 C 41.800781 16.117188 42.882812 17.195312 42.882812 18.523438 C 42.882812 19.851562 41.800781 20.929688 40.476562 20.929688 Z M 40.476562 20.929688 "/>
<path style=" stroke:none;fill-rule:evenodd;fill:rgb(0%,0%,0%);fill-opacity:1;" d="M 40.476562 20.929688 C 40.308594 20.929688 40.171875 20.792969 40.171875 20.625 L 40.171875 16.421875 C 40.171875 16.253906 40.308594 16.117188 40.476562 16.117188 C 40.644531 16.117188 40.777344 16.253906 40.777344 16.421875 L 40.777344 20.625 C 40.777344 20.792969 40.644531 20.929688 40.476562 20.929688 Z M 40.476562 20.929688 "/>
<g clip-path="url(#clip2)" clip-rule="nonzero">
<path style=" stroke:none;fill-rule:evenodd;fill:rgb(0%,0%,0%);fill-opacity:1;" d="M 14.1875 44.507812 L 10.703125 44.507812 C 10.535156 44.507812 10.398438 44.375 10.398438 44.207031 L 10.398438 41.230469 C 10.398438 41.066406 10.535156 40.929688 10.703125 40.929688 C 10.871094 40.929688 11.007812 41.066406 11.007812 41.230469 L 11.007812 43.902344 L 14.003906 43.902344 L 15.46875 41.09375 C 15.546875 40.945312 15.730469 40.886719 15.878906 40.964844 C 16.027344 41.042969 16.085938 41.222656 16.007812 41.375 L 14.457031 44.347656 C 14.40625 44.445312 14.300781 44.507812 14.1875 44.507812 Z M 14.1875 44.507812 "/>
</g>
<g clip-path="url(#clip3)" clip-rule="nonzero">
<path style=" stroke:none;fill-rule:evenodd;fill:rgb(0%,0%,0%);fill-opacity:1;" d="M 38.789062 44.507812 L 35.300781 44.507812 C 35.1875 44.507812 35.085938 44.445312 35.03125 44.347656 L 33.484375 41.375 C 33.40625 41.222656 33.464844 41.042969 33.613281 40.964844 C 33.761719 40.886719 33.945312 40.945312 34.019531 41.09375 L 35.484375 43.902344 L 38.484375 43.902344 L 38.484375 41.230469 C 38.484375 41.066406 38.621094 40.929688 38.789062 40.929688 C 38.957031 40.929688 39.089844 41.066406 39.089844 41.230469 L 39.089844 44.207031 C 39.089844 44.375 38.957031 44.507812 38.789062 44.507812 Z M 38.789062 44.507812 "/>
</g>
<g clip-path="url(#clip4)" clip-rule="nonzero">
<path style=" stroke:none;fill-rule:evenodd;fill:rgb(0%,0%,0%);fill-opacity:1;" d="M 24.746094 10.039062 C 24.675781 10.039062 24.605469 10.015625 24.546875 9.964844 L 19.476562 5.574219 C 19.351562 5.464844 19.339844 5.273438 19.449219 5.144531 C 19.558594 5.019531 19.75 5.003906 19.875 5.117188 L 24.945312 9.507812 C 25.070312 9.617188 25.082031 9.808594 24.972656 9.933594 C 24.914062 10.003906 24.832031 10.039062 24.746094 10.039062 Z M 24.746094 10.039062 "/>
</g>
<g clip-path="url(#clip5)" clip-rule="nonzero">
<path style=" stroke:none;fill-rule:evenodd;fill:rgb(0%,0%,0%);fill-opacity:1;" d="M 24.746094 10.039062 C 24.660156 10.039062 24.574219 10.003906 24.515625 9.933594 C 24.40625 9.808594 24.417969 9.617188 24.546875 9.507812 L 29.613281 5.117188 C 29.742188 5.003906 29.933594 5.019531 30.042969 5.144531 C 30.152344 5.273438 30.136719 5.464844 30.011719 5.574219 L 24.945312 9.964844 C 24.886719 10.015625 24.816406 10.039062 24.746094 10.039062 Z M 24.746094 10.039062 "/>
</g>
<path style=" stroke:none;fill-rule:evenodd;fill:rgb(0%,0%,0%);fill-opacity:1;" d="M 27.910156 13.203125 C 27.742188 13.203125 27.605469 13.066406 27.605469 12.902344 C 27.605469 11.324219 26.324219 10.039062 24.746094 10.039062 C 23.167969 10.039062 21.886719 11.324219 21.886719 12.902344 C 21.886719 13.066406 21.75 13.203125 21.582031 13.203125 C 21.414062 13.203125 21.277344 13.066406 21.277344 12.902344 C 21.277344 10.988281 22.832031 9.433594 24.746094 9.433594 C 26.65625 9.433594 28.210938 10.988281 28.210938 12.902344 C 28.210938 13.066406 28.074219 13.203125 27.910156 13.203125 Z M 27.910156 13.203125 "/>
<path style=" stroke:none;fill-rule:evenodd;fill:rgb(0%,0%,0%);fill-opacity:1;" d="M 40.476562 23.433594 C 39.757812 23.433594 39.171875 24.019531 39.171875 24.738281 C 39.171875 25.457031 39.757812 26.042969 40.476562 26.042969 C 41.195312 26.042969 41.777344 25.457031 41.777344 24.738281 C 41.777344 24.019531 41.195312 23.433594 40.476562 23.433594 Z M 40.476562 26.648438 C 39.421875 26.648438 38.566406 25.792969 38.566406 24.738281 C 38.566406 23.683594 39.421875 22.828125 40.476562 22.828125 C 41.527344 22.828125 42.386719 23.683594 42.386719 24.738281 C 42.386719 25.792969 41.527344 26.648438 40.476562 26.648438 Z M 40.476562 26.648438 "/>
<path style=" stroke:none;fill-rule:evenodd;fill:rgb(0%,0%,0%);fill-opacity:1;" d="M 40.476562 28.089844 C 39.757812 28.089844 39.171875 28.675781 39.171875 29.394531 C 39.171875 30.113281 39.757812 30.699219 40.476562 30.699219 C 41.195312 30.699219 41.777344 30.113281 41.777344 29.394531 C 41.777344 28.675781 41.195312 28.089844 40.476562 28.089844 Z M 40.476562 31.304688 C 39.421875 31.304688 38.566406 30.449219 38.566406 29.394531 C 38.566406 28.339844 39.421875 27.484375 40.476562 27.484375 C 41.527344 27.484375 42.386719 28.339844 42.386719 29.394531 C 42.386719 30.449219 41.527344 31.304688 40.476562 31.304688 Z M 40.476562 31.304688 "/>
<path style=" stroke:none;fill-rule:evenodd;fill:rgb(87.843137%,96.470588%,100%);fill-opacity:1;" d="M 36.699219 33.019531 L 36.699219 21.113281 C 36.699219 18.691406 34.730469 16.722656 32.308594 16.722656 L 12.789062 16.722656 C 10.371094 16.722656 8.402344 18.691406 8.402344 21.113281 L 8.402344 33.019531 C 8.402344 35.441406 10.371094 37.410156 12.789062 37.410156 L 32.308594 37.410156 C 34.730469 37.410156 36.699219 35.441406 36.699219 33.019531 Z M 36.699219 33.019531 "/>
<path style=" stroke:none;fill-rule:evenodd;fill:rgb(100%,87.843137%,50.980392%);fill-opacity:1;" d="M 21.902344 12.597656 L 27.589844 12.597656 C 27.4375 11.160156 26.21875 10.039062 24.746094 10.039062 C 23.269531 10.039062 22.054688 11.160156 21.902344 12.597656 Z M 21.902344 12.597656 "/>
<path style=" stroke:none;fill-rule:evenodd;fill:rgb(100%,87.843137%,50.980392%);fill-opacity:1;" d="M 40.171875 16.75 C 39.324219 16.894531 38.675781 17.632812 38.675781 18.523438 C 38.675781 19.410156 39.324219 20.152344 40.171875 20.296875 Z M 40.171875 16.75 "/>
<path style=" stroke:none;fill-rule:evenodd;fill:rgb(100%,87.843137%,50.980392%);fill-opacity:1;" d="M 40.777344 16.75 L 40.777344 20.296875 C 41.628906 20.152344 42.273438 19.410156 42.273438 18.523438 C 42.273438 17.632812 41.628906 16.894531 40.777344 16.75 Z M 40.777344 16.75 "/>
<path style=" stroke:none;fill-rule:evenodd;fill:rgb(100%,87.843137%,50.980392%);fill-opacity:1;" d="M 41.777344 24.738281 C 41.777344 24.019531 41.195312 23.433594 40.476562 23.433594 C 39.757812 23.433594 39.171875 24.019531 39.171875 24.738281 C 39.171875 25.457031 39.757812 26.042969 40.476562 26.042969 C 41.195312 26.042969 41.777344 25.457031 41.777344 24.738281 Z M 41.777344 24.738281 "/>
<path style=" stroke:none;fill-rule:evenodd;fill:rgb(100%,87.843137%,50.980392%);fill-opacity:1;" d="M 41.777344 29.394531 C 41.777344 28.675781 41.195312 28.089844 40.476562 28.089844 C 39.757812 28.089844 39.171875 28.675781 39.171875 29.394531 C 39.171875 30.113281 39.757812 30.699219 40.476562 30.699219 C 41.195312 30.699219 41.777344 30.113281 41.777344 29.394531 Z M 41.777344 29.394531 "/>
<path style=" stroke:none;fill-rule:evenodd;fill:rgb(68.627451%,71.372549%,72.54902%);fill-opacity:1;" d="M 14.003906 43.902344 L 15.238281 41.535156 L 11.007812 41.535156 L 11.007812 43.902344 Z M 14.003906 43.902344 "/>
<path style=" stroke:none;fill-rule:evenodd;fill:rgb(68.627451%,71.372549%,72.54902%);fill-opacity:1;" d="M 34.253906 41.535156 L 35.484375 43.902344 L 38.484375 43.902344 L 38.484375 41.535156 Z M 34.253906 41.535156 "/>
</g>
</svg>
